<svg width="31" height="30" viewBox="0 0 31 30" fill="none" xmlns="http://www.w3.org/2000/svg">
<path fill-rule="evenodd" clip-rule="evenodd" d="M8.27779 19.4786C7.92974 19.8268 7.9298 20.391 8.27789 20.739C8.62599 21.087 9.19031 21.087 9.53835 20.7389L14.5163 15.7604L19.4948 20.7385C19.8428 21.0865 20.4072 21.0865 20.7552 20.7385C21.1032 20.3904 21.1032 19.8261 20.7552 19.4781L15.7767 14.5L20.7548 9.52134C21.1028 9.17327 21.1028 8.60899 20.7547 8.26098C20.4066 7.91296 19.8423 7.91302 19.4942 8.26109L14.5162 13.2396L9.53774 8.26151C9.18968 7.91348 8.62535 7.91348 8.27729 8.26151C7.92922 8.60956 7.92922 9.17384 8.27729 9.52188L13.2559 14.5001L8.27779 19.4786Z" fill="#777777"/>
</svg>
