<svg width="50" height="30" viewBox="0 0 50 30" fill="none" xmlns="http://www.w3.org/2000/svg">
<path d="M32.6151 4.20886H30.5172C28.1101 4.20886 26.8403 5.47865 26.8403 7.88574V9.98365C26.8403 12.3907 28.1101 13.6605 30.5172 13.6605H32.6151C35.0222 13.6605 36.292 12.3907 36.292 9.98365V7.88574C36.292 5.47865 35.0222 4.20886 32.6151 4.20886Z" fill="white"/>
<path d="M32.6151 16.8291H30.5172C28.1101 16.8291 26.8403 18.0989 26.8403 20.506V22.6039C26.8403 25.011 28.1101 26.2808 30.5172 26.2808H32.6151C35.0222 26.2808 36.292 25.011 36.292 22.6039V20.506C36.292 18.0989 35.0222 16.8291 32.6151 16.8291Z" fill="white"/>
<path d="M19.994 16.8291H17.8961C15.478 16.8291 14.2082 18.0989 14.2082 20.506V22.6039C14.2082 25.022 15.478 26.2918 17.8851 26.2918H19.983C22.3901 26.2918 23.6599 25.022 23.6599 22.615V20.517C23.6709 18.0989 22.4011 16.8291 19.994 16.8291Z" fill="white"/>
<path d="M12.7327 3.87143L7.90264 7.61498C7.80208 7.6981 7.72093 7.80343 7.66516 7.92319C7.6094 8.04295 7.58044 8.17408 7.58044 8.30691C7.58044 8.43974 7.6094 8.57088 7.66516 8.69064C7.72093 8.8104 7.80208 8.91573 7.90264 8.99885L12.7327 12.7424M12.0783 8.30691L17.8985 3.87143V6.53272C22.1431 6.53272 23.0643 10.7819 23.0643 14.5166C23.0643 14.5166 21.5748 10.0811 17.8985 10.0811V12.7424L12.0783 8.30691Z" stroke="white" stroke-width="1.16129" stroke-linecap="round" stroke-linejoin="round"/>
</svg>
